<svg xmlns="http://www.w3.org/2000/svg" viewBox="0 0 100 100" fill="none">
  <rect width="100" height="100" rx="16" fill="#0f1a0f"/>
  <path d="M30 35 C20 35 15 42 16 50 C14 54 16 60 22 62 C22 68 27 73 34 72 C36 76 41 78 46 76 L46 30 C41 28 35 30 30 35Z" fill="#1a6b3a" stroke="#22c55e" stroke-width="2"/>
  <path d="M70 35 C80 35 85 42 84 50 C86 54 84 60 78 62 C78 68 73 73 66 72 C64 76 59 78 54 76 L54 30 C59 28 65 30 70 35Z" fill="#1a6b3a" stroke="#22c55e" stroke-width="2"/>
  <line x1="50" y1="28" x2="50" y2="76" stroke="#22c55e" stroke-width="2"/>
  <line x1="30" y1="46" x2="20" y2="46" stroke="#22c55e" stroke-width="1.5" stroke-linecap="round"/>
  <circle cx="19" cy="46" r="2" fill="#22c55e"/>
  <line x1="28" y1="56" x2="18" y2="56" stroke="#22c55e" stroke-width="1.5" stroke-linecap="round"/>
  <circle cx="17" cy="56" r="2" fill="#22c55e"/>
  <line x1="35" y1="64" x2="28" y2="64" stroke="#22c55e" stroke-width="1.5" stroke-linecap="round"/>
  <circle cx="27" cy="64" r="2" fill="#22c55e"/>
  <line x1="70" y1="46" x2="80" y2="46" stroke="#22c55e" stroke-width="1.5" stroke-linecap="round"/>
  <circle cx="81" cy="46" r="2" fill="#22c55e"/>
  <line x1="72" y1="56" x2="82" y2="56" stroke="#22c55e" stroke-width="1.5" stroke-linecap="round"/>
  <circle cx="83" cy="56" r="2" fill="#22c55e"/>
  <line x1="65" y1="64" x2="72" y2="64" stroke="#22c55e" stroke-width="1.5" stroke-linecap="round"/>
  <circle cx="73" cy="64" r="2" fill="#22c55e"/>
  <circle cx="36" cy="44" r="2.5" fill="#22c55e"/>
  <circle cx="42" cy="52" r="2.5" fill="#22c55e"/>
  <circle cx="36" cy="60" r="2.5" fill="#22c55e"/>
  <circle cx="64" cy="44" r="2.5" fill="#22c55e"/>
  <circle cx="58" cy="52" r="2.5" fill="#22c55e"/>
  <circle cx="64" cy="60" r="2.5" fill="#22c55e"/>
  <line x1="36" y1="44" x2="42" y2="52" stroke="#22c55e" stroke-width="1.2"/>
  <line x1="42" y1="52" x2="36" y2="60" stroke="#22c55e" stroke-width="1.2"/>
  <line x1="64" y1="44" x2="58" y2="52" stroke="#22c55e" stroke-width="1.2"/>
  <line x1="58" y1="52" x2="64" y2="60" stroke="#22c55e" stroke-width="1.2"/>
</svg>
